<svg xmlns="http://www.w3.org/2000/svg" viewBox="0 0 1024 883"><path fill="#F64239" transform="scale(1.21183 1.21125)" d="M105.971 365.884C106.363 359.746 106.12 352.842 106.09 346.63L106.075 317.432L106.104 220.657L106.066 194.343C106.055 183.96 105.743 173.462 108.125 163.271C111.168 150.727 118.028 139.435 127.758 130.952C165.614 97.7379 227.467 122.257 229.492 173.754C229.791 181.375 229.579 189.284 229.587 196.934L229.593 253.493L229.581 328.163C229.579 339.659 230.379 354.816 229.348 366.002C218.032 365.683 205.678 365.888 194.288 365.88L131.679 365.837C123.245 365.836 114.353 366.075 105.971 365.884Z"/><path fill="#F77972" transform="scale(1.21183 1.21125)" d="M105.971 365.884C114.353 366.075 123.245 365.836 131.679 365.837L194.288 365.88C205.678 365.888 218.032 365.683 229.348 366.002C226.49 370.488 223.476 376.644 220.966 381.48L206.489 409.521L151.017 515.92L139.69 537.691C132.629 551.511 127.826 561.799 117.643 573.708C103.127 590.58 84.4462 603.359 63.4584 610.772C42.6463 618.093 10.9367 619.458 2.06837 593.575C-4.4365 574.59 7.59541 554.997 16.1982 538.531L34.5692 503.252C49.8112 474.275 64.8789 445.206 79.7714 416.048C88.3435 399.572 97.7217 382.458 105.971 365.884Z"/><path fill="#4CB14F" transform="scale(1.21183 1.21125)" d="M509.622 365.013C510.404 349.659 509.821 330.253 509.816 314.413L509.806 220.815L509.772 191.482C509.763 184.284 509.41 177.066 510.579 169.961C513.099 154.645 518.462 142.692 530.261 131.955C543.376 120.019 559.373 115.135 576.977 116.157C592.777 117.198 607.513 124.491 617.922 136.422C634.874 155.555 633.086 171.054 633.049 194.522L633.034 242.908L633.047 323.429C633.05 329.435 633.601 363.09 632.433 365.585C629.266 364.292 521.12 364.919 509.622 365.013Z"/><path fill="#80C583" transform="scale(1.21183 1.21125)" d="M509.622 365.013C521.12 364.919 629.266 364.292 632.433 365.585C626.122 377.024 620.53 388.368 614.464 399.881L557.283 509.42L542.918 537.259C538.078 546.779 532.097 558.904 525.476 567.215C512.49 583.6 495.752 596.621 476.675 605.177C461.661 611.892 440.679 616.698 424.655 610.397C403.981 602.268 400.728 580.795 408.255 561.766C413.501 548.504 421.366 535.446 428.016 522.427L484.975 412.679C493.132 396.962 501.679 381.324 509.467 365.439C509.519 365.297 509.571 365.155 509.622 365.013Z"/><path fill="#FED250" transform="scale(1.21183 1.21125)" d="M720.673 365.396C721.627 342.419 721.116 316.798 721.119 293.583L721.118 172.995L721.088 127.183C721.08 119.837 720.874 111.398 721.226 104.134C721.598 96.4468 725.862 82.1875 729.879 75.7422C738.648 61.7618 752.587 51.8122 768.658 48.0603C770.611 47.6075 781.236 45.6014 782.783 45.7206C793.752 46.5659 806.77 50.0968 816.005 55.9252C830.294 65.0753 840.419 79.4692 844.201 96.0089L845 97.7561L845 364.836C841.998 370.803 838.554 376.387 835.504 382.239L793.838 461.803C766.979 514.709 739.679 567.391 711.941 619.842C709.413 624.509 706.31 630.353 703.073 634.522C687.405 654.494 664.831 671.49 640.424 678.862C620.169 684.981 587.688 685.209 580.99 659.841C575.024 637.241 588.956 617.881 598.638 599.026L631.552 535.604L699.596 405.133C706.229 392.372 712.479 377.973 720.43 365.857C720.511 365.703 720.592 365.549 720.673 365.396Z"/><path fill="#FEC106" transform="scale(1.21183 1.21125)" d="M720.673 365.396C721.627 342.419 721.116 316.798 721.119 293.583L721.118 172.995L721.088 127.183C721.08 119.837 720.874 111.398 721.226 104.134C721.598 96.4468 725.862 82.1875 729.879 75.7422C738.648 61.7618 752.587 51.8122 768.658 48.0603C770.611 47.6075 781.236 45.6014 782.783 45.7206C793.752 46.5659 806.77 50.0968 816.005 55.9252C830.294 65.0753 840.419 79.4692 844.201 96.0089C843.596 145.948 844.185 197.264 844.184 247.32L844.179 325.094C844.177 338.233 843.934 352.114 844.207 365.181C838.27 365.629 831.544 365.428 825.511 365.419L796.546 365.392C771.624 365.387 745.498 365.813 720.673 365.396Z"/><path fill="#3F51B5" transform="scale(1.21183 1.21125)" d="M301.158 365.519C302.584 360.781 302 349.379 302.007 343.965L302.043 310.516L302.05 128.43L302.023 84.4452C301.996 73.7666 301.072 55.2636 303.741 45.7137C308.038 29.9755 318.455 16.6115 332.67 8.60344C346.303 0.799165 364.684 -1.37439 379.791 2.867C395.468 7.31789 408.764 17.7585 416.806 31.9323C426.717 49.8111 425.144 63.6026 425.129 83.0673L425.092 127.911L425.149 267.388L425.151 338.809C425.151 342.756 425.565 363.648 424.537 365.472C421.473 365.577 418.304 365.462 415.23 365.483C377.233 365.75 339.146 365.052 301.158 365.519Z"/><path fill="#7782CB" transform="scale(1.21183 1.21125)" d="M301.158 365.519C339.146 365.052 377.233 365.75 415.23 365.483C418.304 365.462 421.473 365.577 424.537 365.472C420.328 369.409 398.378 414.361 394.076 422.624L316.356 571.811L285.649 630.822C274.672 651.858 263.875 676.753 247.292 693.409C232.918 708.007 215.198 718.876 195.67 725.074C190.39 726.722 184.138 727.597 179.769 729L167.353 729C161.394 727.066 157.018 726.597 151.319 723.396C131.394 712.203 133.799 687.316 142.742 669.645C144.322 666.522 145.942 663.428 147.543 660.329L160.057 636.372L201.14 557.523L265.055 434.487L286.717 392.945C291.423 383.879 296.016 374.307 301.158 365.519Z"/></svg>