<svg xmlns="http://www.w3.org/2000/svg" viewBox="0 0 724 1024"><path fill="#131111" transform="scale(0.67037 0.670596)" d="M867.583 241.805C869.532 236.684 871.066 232.338 877.276 231.675C884.35 234.097 881.656 240.576 879.696 245.909C886.233 252.713 894.073 258.569 901.072 265.902C896.151 271.341 892.721 274.62 887.168 279.319L889.602 288.24C886.052 298.744 886.378 344.241 888.828 355.656C895.054 362.668 900.514 365.4 907.326 371.119C919.118 381.019 928.611 390.562 942.901 397.268C945.553 398.116 955.841 401.609 958.056 402.054L966.466 404.879C963.84 408.447 959.864 415.692 958.468 417.436C953.613 418.474 951.482 418.363 946.427 418.17C940.327 412.66 928.481 403.12 921.846 398.716C914.425 393.791 905.227 389.141 897.523 384.05C885.553 376.14 874.828 363.37 860.631 360.399C857.667 360.215 855.119 360.11 852.837 358.289C851.763 353.526 858.425 351.445 862.101 344.703L862.506 343.951C862.499 319.478 865.031 302.51 870.774 278.843C873.233 268.711 867.929 262.917 874.427 250.701C871.236 247.185 870.168 245.79 867.583 241.805ZM869.472 352.961C872.248 351.891 874.665 351.659 878.162 350.229C883.993 342.269 881.993 312.075 873.536 313.354C869.749 318.382 871.66 323.574 870.481 329.146C868.506 338.476 866.532 343.939 867.475 353.589L869.472 352.961ZM882.17 359.065C876.972 358.378 875.401 358.167 870.536 356.381L869.439 357.603C872.367 362.073 900.428 382.222 905.134 379.757C906.752 371.768 888.319 361.487 882.17 359.065Z"/><path fill="#312F30" transform="scale(0.67037 0.670596)" d="M867.475 353.589L869.472 352.961C869.873 354.129 870.287 355.173 870.536 356.381L869.439 357.603C872.367 362.073 900.428 382.222 905.134 379.757C906.752 371.768 888.319 361.487 882.17 359.065C885.159 358.664 887.019 357.98 888.828 355.656C895.054 362.668 900.514 365.4 907.326 371.119C919.118 381.019 928.611 390.562 942.901 397.268C945.553 398.116 955.841 401.609 958.056 402.054L966.466 404.879C963.84 408.447 959.864 415.692 958.468 417.436C953.613 418.474 951.482 418.363 946.427 418.17C940.327 412.66 928.481 403.12 921.846 398.716C914.425 393.791 905.227 389.141 897.523 384.05C885.553 376.14 874.828 363.37 860.631 360.399C863.057 360.19 863.143 360.139 865.337 359.008C867.132 356.928 867.105 356.352 867.475 353.589Z"/><path fill="#444243" transform="scale(0.67037 0.670596)" d="M942.901 397.268C945.553 398.116 955.841 401.609 958.056 402.054C953.068 409.383 943.685 405.964 942.901 397.268Z"/><path fill="#312F30" transform="scale(0.67037 0.670596)" d="M946.427 418.17C951.482 418.363 953.613 418.474 958.468 417.436L960.445 419.712C965.441 422.568 968.37 424.339 972.653 428.211C964.141 427.338 953.301 427.02 947.514 420.041L946.427 418.17Z"/><path fill="#444243" transform="scale(0.67037 0.670596)" d="M946.427 418.17C951.482 418.363 953.613 418.474 958.468 417.436L960.445 419.712C957.105 419.748 950.592 419.634 947.514 420.041L946.427 418.17Z"/><path fill="#00AEA9" transform="scale(0.67037 0.670596)" d="M401.252 0L1014.75 0C999.999 17.7952 976.91 40.8804 960.555 58.2775L861.356 164.047L553.525 492.562C540.93 505.939 451.724 598.15 449.7 604.507L450.859 605.905C449.519 609.355 446.441 609.921 443.125 611.155L440 611.208C437.926 610.026 438.608 610.64 437.673 607.779L436.405 611.311C429.974 609.684 424.423 607.767 425.106 600.161L419.565 600.3C415.223 600.803 406.942 596.606 403.583 594.01L403.687 594.733C401.51 592.771 397.537 591.416 394.645 592.149C394.11 594.06 394.169 593.077 394.763 595.194L390.511 597.46L386.605 596.653C384.677 594.861 385.054 595.888 384.971 593.67C386.329 591.5 387.033 591.443 389.5 590.328C381.275 581.655 368.15 570.393 359.037 562.028L302.622 510.174L98.6729 322.884L401.252 0Z"/><path fill="#051618" transform="scale(0.67037 0.670596)" d="M380.093 554.933C380.549 548.52 381.636 542.168 383.339 535.968C385.097 529.754 388.432 521.199 390.027 514.593C389.71 513.774 389.442 513.081 389.223 512.515C383.715 508.4 377.469 518.374 371.421 516.085C367.207 514.49 366.143 507.388 367.441 503.62C372.275 497.799 381.441 502.935 386.827 505.5C392.681 504.494 395.857 492.374 395.324 487.181C395.206 486.033 389.694 482.181 390.152 479.068C391.013 473.217 394.226 466.125 401.023 466.448C406.792 469.468 405.506 472.873 404.033 478.335C409.48 492.881 407.937 495.38 407.245 511.108C407.201 517.921 406.936 525.529 406.06 532.294C405.798 535.99 404.854 551.247 403.947 553.841C402.734 554.36 401.726 554.755 400.484 555.202C397.274 566.598 405.261 574.243 413.224 580.522C407.981 584.485 403.217 586.72 403.583 594.01L403.687 594.733C401.51 592.771 397.537 591.416 394.645 592.149C394.11 594.06 394.169 593.077 394.763 595.194L390.511 597.46L386.605 596.653C384.677 594.861 385.054 595.888 384.971 593.67C386.329 591.5 387.033 591.443 389.5 590.328C395.215 586.171 394.792 578.621 395.44 572.056C390.988 565.72 385.522 560.414 380.093 554.933Z"/><path fill="#06262A" transform="scale(0.67037 0.670596)" d="M407.245 511.108C407.201 517.921 406.936 525.529 406.06 532.294C405.413 523.037 396.507 522.634 407.245 511.108Z"/><path fill="#131111" transform="scale(0.67037 0.670596)" d="M428.227 507.577C436.061 500.084 426.534 490.962 437.85 489.278C445.644 488.119 444.715 503.895 441.862 507.777C441.438 508.439 438.82 508.742 437.883 508.888C436.905 512.399 440.597 515.2 442.956 517.718C440.134 546.149 456.425 545.665 456.366 556.501C454.823 558.711 455.814 557.919 453.238 558.901C450.353 557.588 449.83 554.105 447.845 551.257C444.453 546.39 440.411 542.417 437.078 537.535C437.827 547.295 441.371 572.367 436.997 579.092C434.522 577.138 435.03 576.924 432.365 576.57C430.828 578.012 430.673 580.711 430.274 582.92L429.714 583.505C428.064 589.025 426.528 594.578 425.106 600.161L419.565 600.3C419.738 594.193 422.542 578.962 422.315 577.136C420.504 576.05 419.98 575.858 418.615 574.3C416.694 565.905 416.641 550.329 417.979 541.778C421.915 533.177 414.699 512.563 428.227 507.577Z"/><path fill="#06262A" transform="scale(0.67037 0.670596)" d="M417.979 541.778C421.915 533.177 414.699 512.563 428.227 507.577L433.663 509.654C429.819 515.037 428.224 514.85 429.166 522.666C429.851 528.351 433.092 534.601 430.329 539.707C426.635 542.862 422.187 541.051 417.979 541.778Z"/><path fill="#051618" transform="scale(0.67037 0.670596)" d="M429.714 583.505L430.274 582.92C430.673 580.711 430.828 578.012 432.365 576.57C435.03 576.924 434.522 577.138 436.997 579.092C437.821 586.977 438.686 605.636 449.7 604.507L450.859 605.905C449.519 609.355 446.441 609.921 443.125 611.155L440 611.208C437.926 610.026 438.608 610.64 437.673 607.779L436.405 611.311C429.974 609.684 424.423 607.767 425.106 600.161C426.528 594.578 428.064 589.025 429.714 583.505Z"/><path fill="#00AEA9" transform="scale(0.67037 0.670596)" d="M429.714 583.505C432.779 591.672 436.236 599.119 437.673 607.779L436.405 611.311C429.974 609.684 424.423 607.767 425.106 600.161C426.528 594.578 428.064 589.025 429.714 583.505Z"/><path fill="#FEC833" transform="scale(0.67037 0.670596)" d="M632.476 903.886L859.53 1097.62L925.659 1154.05C940.585 1166.7 958.507 1181.26 972.491 1194.74C957.79 1212.32 941.395 1230.34 926.248 1247.81L826.681 1362.6C810.35 1381.37 792.194 1401.29 776.572 1420.37C773.814 1420.64 774.053 1420.19 772.152 1421.59C772.952 1423.57 772.345 1422.71 774.284 1424.07L774.295 1426.26C767.02 1423.87 762.048 1422.39 754.594 1420.73C758.726 1423.5 763.914 1426.76 767.811 1429.7C749.607 1451.02 731.175 1472.16 712.518 1493.09C704.595 1502.08 690.083 1517.7 683.47 1527L89.2263 1527C94.047 1519.72 104.923 1507.74 110.858 1500.96L147.582 1459.18L271.286 1317.25L505.836 1048.47C547.315 1000.92 589.705 949.633 632.476 903.886Z"/><path fill="#131111" transform="scale(0.67037 0.670596)" d="M767.408 1306.78C777.991 1305.99 786.174 1313.69 795.191 1315.65C795.215 1322.94 793.3 1336.2 791.028 1343.34C790.18 1346 786.005 1351.69 785.862 1354.59C785.218 1367.68 787.129 1372.98 784.779 1386.48L778.637 1385.94C778.46 1380.42 778.124 1374.91 777.631 1369.42C777.156 1364.23 776.69 1353.15 772.866 1349.97L771.488 1350.66C767.025 1357.08 763.929 1377.92 762.502 1386.04C759.364 1385.23 758.962 1384.91 756.315 1383.01C756.046 1371.87 759.916 1358.21 758.766 1348.21C757.037 1333.18 759.484 1319.7 767.408 1306.78Z"/><path fill="#45340E" transform="scale(0.67037 0.670596)" d="M779.913 1256.42C784.565 1266.13 784.631 1266.15 792.117 1273.34L799.535 1279.27L805.039 1282.09C796.989 1297.43 794.574 1295.01 795.191 1315.65C786.174 1313.69 777.991 1305.99 767.408 1306.78C765.997 1306.14 765.936 1305.92 764.803 1304.82L764.832 1302.68C767.829 1291.54 773.957 1281.25 776.227 1270.59L774.245 1268.38L773.119 1265.35C776.131 1262.78 775.264 1260.13 775.927 1255.78C777.213 1256.02 778.627 1256.34 779.913 1256.42Z"/><path fill="#604C0A" transform="scale(0.67037 0.670596)" d="M776.227 1270.59C783.021 1276.07 773.22 1284.31 773.644 1291.97L775.404 1289.76L776.205 1290.22C776.489 1298.17 769.426 1297.11 764.832 1302.68C767.829 1291.54 773.957 1281.25 776.227 1270.59Z"/><path fill="#382A10" transform="scale(0.67037 0.670596)" d="M779.913 1256.42C784.565 1266.13 784.631 1266.15 792.117 1273.34C783.596 1272.94 783.964 1271.64 780.587 1264.68C778.345 1263.91 779.765 1264.55 777.529 1267.23C776.197 1267.7 775.102 1268.08 774.245 1268.38L773.119 1265.35C776.131 1262.78 775.264 1260.13 775.927 1255.78C777.213 1256.02 778.627 1256.34 779.913 1256.42Z"/><path fill="#131111" transform="scale(0.67037 0.670596)" d="M779.913 1256.42C776.533 1249.1 769.599 1233.41 778.452 1227.32L780.023 1227.33C783.671 1231.82 780.621 1237.28 778.56 1241.88L786.477 1254.87C790.813 1250.11 797.24 1244.69 803.637 1250.35C805.084 1251.61 805.925 1253.42 805.949 1255.34C805.986 1258.59 803.994 1261.25 801.664 1263.3C803.746 1267.09 805.927 1271.28 808.344 1274.82L805.039 1282.09L799.535 1279.27L792.117 1273.34C784.631 1266.15 784.565 1266.13 779.913 1256.42Z"/><path fill="#382A10" transform="scale(0.67037 0.670596)" d="M801.664 1263.3C803.746 1267.09 805.927 1271.28 808.344 1274.82L805.039 1282.09L799.535 1279.27C803.926 1275.24 796.38 1271.95 801.664 1263.3Z"/><path fill="#131111" transform="scale(0.67037 0.670596)" d="M597.96 1111.31C602.502 1109.52 607.636 1111.74 609.431 1116.28C611.227 1120.82 609.006 1125.95 604.468 1127.75C599.924 1129.56 594.779 1127.33 592.981 1122.79C591.182 1118.24 593.413 1113.1 597.96 1111.31Z"/><path fill="#131111" transform="scale(0.67037 0.670596)" d="M758.823 1237.17C761.449 1238.79 761.376 1238.57 765.273 1237.76L766.052 1246.49C768.789 1248.89 773.893 1253.08 775.927 1255.78C775.264 1260.13 776.131 1262.78 773.119 1265.35C767.874 1259.73 762.696 1254.04 757.584 1248.3C757.739 1244.45 758.287 1240.98 758.823 1237.17Z"/><path fill="#131111" transform="scale(0.67037 0.670596)" d="M777.238 1396.89C781.228 1398.71 782.306 1399.7 786.339 1397.34C792.286 1407.95 771.982 1417.22 768.006 1411.1C769.238 1407.64 774.7 1400.9 777.238 1396.89Z"/><path fill="#131111" transform="scale(0.67037 0.670596)" d="M755.779 1394.18C759.545 1395.1 760.043 1395.05 763.812 1394.49L764.962 1396.24C765.956 1400.84 760.852 1410.2 755.937 1411.74C750.611 1409.79 754.365 1398.49 755.779 1394.18Z"/><path fill="#131111" transform="scale(0.67037 0.670596)" d="M758.823 1237.17C759.641 1233.77 761.078 1229.23 760.557 1225.94C757.099 1223.83 756.019 1226.94 752.781 1224.6C752.342 1221.51 752.039 1222.34 753.045 1219.74C757.373 1217.17 763.109 1220.7 766.882 1222.96C766.184 1228.09 765.565 1232.56 765.273 1237.76C761.376 1238.57 761.449 1238.79 758.823 1237.17Z"/><path fill="#45340E" transform="scale(0.67037 0.670596)" d="M778.637 1385.94L784.779 1386.48C784.411 1390.99 783.73 1393.61 786.339 1397.34C782.306 1399.7 781.228 1398.71 777.238 1396.89C778.516 1392.01 778.59 1391.01 778.637 1385.94Z"/><path fill="#45340E" transform="scale(0.67037 0.670596)" d="M756.315 1383.01C758.962 1384.91 759.364 1385.23 762.502 1386.04C761.718 1388.65 761.012 1389.92 761.868 1392.46L763.812 1394.49C760.043 1395.05 759.545 1395.1 755.779 1394.18C756.709 1390.04 756.444 1387.26 756.315 1383.01Z"/><path fill="#131111" transform="scale(0.67037 0.670596)" d="M774.284 1424.07C772.345 1422.71 772.952 1423.57 772.152 1421.59C774.053 1420.19 773.814 1420.64 776.572 1420.37C784.041 1421.99 792.085 1423.45 799.07 1426.53C799.336 1427.63 800.221 1431.14 800.925 1431.97C810.764 1443.46 822.869 1454.81 833.663 1465.42C836.814 1468.52 845.602 1473.62 849.413 1476.63C856.722 1482.41 864.431 1489.49 871.843 1494.59C880.408 1500.39 885.447 1504.23 892.783 1511.55C900.229 1516.27 904.969 1520.9 911.161 1527L866.5 1527C859.744 1521.66 854.99 1518.46 851.055 1510.87C851.046 1510.85 843.736 1502.24 842.94 1501.26C832.895 1493.63 826.731 1484.67 817.999 1477.42C800.885 1463.2 785.164 1442.24 767.811 1429.7C763.914 1426.76 758.726 1423.5 754.594 1420.73C762.048 1422.39 767.02 1423.87 774.295 1426.26C775.756 1427.15 776.421 1428.18 777.391 1429.46C786.11 1440.92 811.225 1463.77 823.882 1469.49C815.698 1452.57 793.281 1427.64 774.284 1424.07Z"/><path fill="#131111" transform="scale(0.67037 0.670596)" d="M854.708 1510.53C862.519 1510.81 876.447 1510.4 883.112 1511.2L892.783 1511.55C900.229 1516.27 904.969 1520.9 911.161 1527L866.5 1527C859.744 1521.66 854.99 1518.46 851.055 1510.87L854.708 1510.53Z"/><path fill="#312F30" transform="scale(0.67037 0.670596)" d="M871.843 1494.59C880.408 1500.39 885.447 1504.23 892.783 1511.55L883.112 1511.2L882.165 1509.4C879.481 1504.61 873.828 1501.92 871.843 1494.59Z"/><path fill="#312F30" transform="scale(0.67037 0.670596)" d="M854.481 1509.09C860.201 1509.09 877.6 1508.67 882.165 1509.4L883.112 1511.2C876.447 1510.4 862.519 1510.81 854.708 1510.53L854.481 1509.09Z"/><path fill="#312F30" transform="scale(0.67037 0.670596)" d="M842.94 1501.26C849.29 1502.48 851.312 1503.02 854.481 1509.09L854.708 1510.53L851.055 1510.87C851.046 1510.85 843.736 1502.24 842.94 1501.26Z"/><path fill="#312F30" transform="scale(0.67037 0.670596)" d="M394.763 595.194C394.169 593.077 394.11 594.06 394.645 592.149C397.537 591.416 401.51 592.771 403.687 594.733L403.583 594.01C406.942 596.606 415.223 600.803 419.565 600.3L425.106 600.161C424.423 607.767 429.974 609.684 436.405 611.311L437.673 607.779C438.608 610.64 437.926 610.026 440 611.208L443.125 611.155C446.131 612.687 450.528 613.403 453.924 614.123C448.917 618.801 448.652 618.303 449.878 624.954C461.846 635.688 473.059 650.156 483.775 659.378L484.24 658.523C486.404 654.499 487.265 649.345 488.998 647.52C492.989 649.377 491.453 658.533 491.219 662.353L491.652 663.024C493.193 665.385 498.695 670.909 499.136 671.926C503.503 681.993 514.482 675.667 515.796 686.518C511.784 691.711 490.23 675.983 483.896 674.016C470.666 669.906 459.481 674.281 457.846 657.31C452.184 653.931 447.554 650.921 442.112 647.196C434.831 649.845 418.49 654.09 414.954 643.686C417.206 639.514 428.541 643.726 433.608 641.866C434.164 636.246 409.124 625.966 404.183 617.526C402.895 613.237 404.846 611.034 407.015 606.898C401.638 602.424 396.763 600.379 390.511 597.46L394.763 595.194ZM435.428 617.194C433.843 619.789 432.686 620.548 433.021 622.99C434.68 624.19 436.314 625.426 437.922 626.695L440.503 628.888C442.638 630.302 443.987 631.413 446.481 630.884C448.184 626.36 443.124 619.571 440.146 616.328C439.295 615.402 437.572 616.172 436.5 616.453L435.428 617.194Z"/><path fill="#06262A" transform="scale(0.67037 0.670596)" d="M394.763 595.194C394.169 593.077 394.11 594.06 394.645 592.149C397.537 591.416 401.51 592.771 403.687 594.733L403.583 594.01C406.942 596.606 415.223 600.803 419.565 600.3L425.106 600.161C424.423 607.767 429.974 609.684 436.405 611.311C435.403 614.099 435.662 613.113 436.5 616.453L435.428 617.194C431.951 618.578 431.438 619.501 429.327 622.447C426.563 623.49 425.337 622.567 422.739 621.135C420.235 619.426 418.087 617.413 415.81 615.409L415.402 614.967C412.426 610.907 411.058 609.759 407.015 606.898C401.638 602.424 396.763 600.379 390.511 597.46L394.763 595.194Z"/><path fill="#051618" transform="scale(0.67037 0.670596)" d="M415.81 615.409C420.14 611.264 430.494 613.436 436.052 614.201C429.742 616.435 427.68 616.601 422.739 621.135C420.235 619.426 418.087 617.413 415.81 615.409Z"/><path fill="#131111" transform="scale(0.67037 0.670596)" d="M394.763 595.194C394.169 593.077 394.11 594.06 394.645 592.149C397.537 591.416 401.51 592.771 403.687 594.733C403.338 597.677 403.853 597.083 402.206 598.936C399.626 599.092 397.328 596.79 394.763 595.194Z"/><path fill="#444243" transform="scale(0.67037 0.670596)" d="M407.015 606.898C411.058 609.759 412.426 610.907 415.402 614.967C411.28 620.062 409.008 615.324 404.183 617.526C402.895 613.237 404.846 611.034 407.015 606.898Z"/><path fill="#444243" transform="scale(0.67037 0.670596)" d="M437.922 626.695L440.503 628.888C436.087 629.722 432.317 630.568 427.791 630.61C430.736 628.488 434.221 629.089 437.922 626.695Z"/></svg>