<svg xmlns="http://www.w3.org/2000/svg" viewBox="0 0 602 723">
    <path
        d="M327.103 230.387C329.098 232.3 340.24 253.245 342.558 257.183C338.242 257.452 332.475 257.306 328.05 257.317C322.541 257.346 317.032 257.33 311.524 257.268L327.103 230.387ZM328.09 253.155L335.344 253.073C334.113 250.723 328.711 240.224 326.963 238.913C324.172 243.336 321.588 247.886 319.22 252.55C322.708 253.047 324.622 253.106 328.09 253.155Z" />
    <path
        d="M327.275 351.229L329.244 351.357C329.392 351.559 329.54 351.761 329.688 351.963C329.558 360.539 329.601 372.533 329.599 380.809L329.598 454.17C329.6 468.597 329.437 483.457 329.741 497.854C328.214 497.744 328.323 498.007 327.411 497.208C327.148 491.696 327.312 485.21 327.318 479.646L327.339 449.446L327.275 351.229Z" />
    <path
        d="M94.4666 682.691C125.193 679.306 167.03 643.573 191.465 624.23C206.497 612.117 221.726 600.251 237.145 588.635C249.018 579.712 261.903 568.282 276.738 565.002C316.903 556.122 334.269 609.08 379.023 553.309C396.819 531.133 410.296 504.664 422.624 479.148C435.802 451.556 448.126 423.564 459.579 395.213C493.826 309.769 525.37 223.267 554.165 135.836C557.302 126.606 560.891 117.209 564.092 107.743L588.377 34.4494C591.79 24.0722 595.322 13.6651 598.56 3.23148C598.906 2.1161 599.159 1.55909 600.072 1.16897L600.889 1.39428C601.284 2.45278 599.355 6.75172 598.854 8.25073L586.36 46.4426C560.176 126.437 532.661 205.99 503.826 285.068C482.855 342.275 461.217 399.53 435.935 454.996C421.142 487.451 386.084 565.569 351.426 578.472C322.104 589.389 301.976 555.172 269.187 569.189C257.849 574.036 244.239 585.403 234.31 593.019C220.539 603.627 206.864 614.359 193.286 625.213C170.16 643.515 123.499 682.303 94.305 684.469C90.2406 685.309 89.1032 684.946 85.4045 684.617C78.7318 683.952 72.2222 681.256 66.7265 677.458C64.3244 675.799 57.4221 670.091 56.9256 667.332L57.3787 666.805C57.635 666.816 57.8914 666.827 58.1477 666.839C62.056 670.382 65.9312 674.862 70.436 677.622C75.6052 680.789 79.5762 681.892 85.4425 682.635C88.4312 682.68 91.4835 682.763 94.4666 682.691Z" />
    <path fill="#F85A21"
        d="M85.4045 684.617C89.1032 684.946 90.2406 685.309 94.305 684.469L94.3674 707.362C94.3699 710.909 93.7305 715.585 94.9922 718.733C95.9723 721.179 94.7618 721.323 92.6775 723L21.3301 723C20.9762 722.393 20.178 721.401 20.1177 720.764C19.7795 717.187 19.9291 713.496 19.9662 709.897C20.0513 704.432 20.0416 698.967 19.937 693.502C22.5356 693.715 26.1934 693.838 28.7555 693.455C28.6165 699.71 28.7168 705.968 29.0562 712.215C31.5681 712.672 34.116 712.786 36.6699 712.768C51.3201 712.67 66.0437 713.154 80.6754 712.554C82.0381 712.498 84.0735 711.738 85.3805 711.272C85.7328 704.452 85.6522 691.417 85.4045 684.617Z" />
    <path fill="#F85A21"
        d="M20.0147 647.1C29.1751 647.981 92.9728 645.747 95.3055 647.786C93.7728 650.737 94.3344 656.546 94.3335 660.072C94.2897 667.612 94.3341 675.152 94.4666 682.691C91.4835 682.763 88.4312 682.68 85.4425 682.635C85.4674 673.868 85.6464 664.597 85.4678 655.871L51.0497 655.909C43.7811 655.909 36.0405 655.764 28.8091 656.144C28.5691 665.595 28.8523 675.036 28.6536 684.457C25.7089 684.36 22.7616 684.376 19.8181 684.503C20.0151 672.036 20.0806 659.568 20.0147 647.1Z" />
    <path
        d="M19.8181 684.503C22.7616 684.376 25.7089 684.36 28.6536 684.457C31.5372 684.505 35.185 684.669 38.0103 684.557C38.0206 687.485 38.0591 690.419 37.9365 693.344C35.4622 693.355 31.0782 693.24 28.7555 693.455C26.1934 693.838 22.5356 693.715 19.937 693.502C16.406 692.782 7.87291 693.75 3.96975 693.402C1.40535 693.173 1.63712 693.558 0 691.759L0 685.603C1.50115 684.353 2.56792 684.533 4.45333 684.553C9.59386 684.608 14.6781 684.792 19.8181 684.503Z" />
</svg>